<?xml version="1.0" standalone="no"?>
<!DOCTYPE svg PUBLIC "-//W3C//DTD SVG 20010904//EN"
 "http://www.w3.org/TR/2001/REC-SVG-20010904/DTD/svg10.dtd">
<svg version="1.0" xmlns="http://www.w3.org/2000/svg"
 width="351.000000pt" height="351.000000pt" viewBox="0 0 351.000000 351.000000"
 preserveAspectRatio="xMidYMid meet">
<metadata>
Created by potrace 1.11, written by Peter Selinger 2001-2013
</metadata>
<g transform="translate(0.000000,351.000000) scale(0.100000,-0.100000)"
fill="#000000" stroke="none">
<path d="M2020 2781 c-137 -20 -288 -87 -381 -170 l-54 -49 25 -20 c14 -11 74
-60 134 -110 l109 -91 43 29 c53 37 83 49 164 64 l64 12 28 164 c15 90 26 165
24 167 -8 9 -105 11 -156 4z"/>
<path d="M2280 2753 c0 -5 -13 -80 -28 -169 l-29 -160 44 -18 c49 -20 131 -91
152 -130 8 -14 19 -26 25 -26 20 0 316 112 316 120 0 4 -22 41 -48 81 -70 107
-176 201 -287 254 -92 44 -145 61 -145 48z"/>
<path d="M807 2526 c-87 -36 -168 -105 -220 -189 l-18 -27 92 -43 92 -43 51
51 c33 33 66 55 94 63 33 10 42 17 38 30 -2 9 -8 54 -11 100 -7 80 -8 82 -34
82 -14 0 -52 -11 -84 -24z"/>
<path d="M965 2494 c15 -139 10 -130 71 -143 32 -8 72 -26 98 -46 l44 -33 76
55 c43 30 75 60 73 67 -7 23 -123 107 -177 127 -30 12 -86 24 -123 27 l-69 5
7 -59z"/>
<path d="M1508 2458 c-61 -93 -105 -226 -114 -342 -6 -77 9 -223 24 -238 4 -4
77 19 162 50 l155 56 0 86 c0 70 4 94 26 140 l25 55 -129 107 c-71 60 -130
108 -132 108 -1 0 -9 -10 -17 -22z"/>
<path d="M539 2218 c-18 -74 -16 -183 5 -246 14 -42 25 -56 54 -71 l37 -19 58
41 c32 22 60 44 62 48 3 4 -2 24 -11 45 -11 25 -15 60 -12 106 l3 69 -88 40
c-48 21 -89 39 -91 39 -2 0 -10 -24 -17 -52z"/>
<path d="M2635 2209 l-161 -59 4 -68 c3 -51 -1 -82 -17 -127 -12 -33 -24 -67
-27 -76 -4 -12 29 -46 122 -123 71 -58 132 -106 136 -106 12 0 59 79 85 143
32 80 53 185 53 271 0 73 -16 186 -28 198 -4 3 -79 -20 -167 -53z"/>
<path d="M1155 1925 c-29 -29 -65 -55 -85 -61 -24 -6 -36 -16 -38 -31 -3 -20
-2 -20 50 -7 29 8 92 14 140 14 48 0 88 3 88 6 0 3 -5 24 -11 48 -9 36 -17 46
-52 62 l-42 20 -50 -51z"/>
<path d="M3040 1947 c0 -16 39 -210 43 -212 1 -1 17 -7 35 -14 37 -15 27 -21
139 76 l73 62 -33 25 c-53 41 -126 68 -194 74 -52 4 -63 2 -63 -11z"/>
<path d="M2948 1938 c-19 -7 -28 -17 -28 -31 0 -12 -14 -60 -30 -107 -16 -47
-26 -88 -22 -91 4 -3 27 -13 52 -21 45 -15 47 -15 75 9 l28 25 -18 96 c-24
131 -24 131 -57 120z"/>
<path d="M731 1904 c-28 -19 -51 -37 -51 -41 0 -3 20 -23 44 -44 24 -22 57
-59 72 -83 l28 -44 56 39 c31 21 68 43 83 48 21 8 27 17 27 41 0 22 -5 30 -17
30 -37 0 -94 22 -142 54 l-50 34 -50 -34z"/>
<path d="M496 1788 c-4 -40 -9 -80 -12 -89 -3 -12 3 -19 21 -23 14 -4 43 -24
64 -45 l39 -39 81 35 81 35 -18 30 c-29 52 -119 125 -177 147 -31 12 -59 21
-64 21 -5 0 -11 -33 -15 -72z"/>
<path d="M3270 1743 c-50 -45 -84 -82 -82 -92 1 -9 4 -27 6 -40 3 -21 18 -29
111 -62 60 -22 112 -39 116 -39 15 0 21 107 10 161 -13 57 -51 141 -66 145 -6
2 -48 -31 -95 -73z"/>
<path d="M2322 1758 c-53 -37 -139 -68 -187 -68 -28 0 -36 -4 -39 -22 -34
-161 -34 -178 -1 -178 39 0 132 -39 180 -76 l45 -34 62 25 c112 45 256 153
232 173 -5 5 -63 54 -129 109 l-121 100 -42 -29z"/>
<path d="M1212 1568 c15 -101 27 -184 27 -185 1 -1 14 -4 31 -8 16 -4 32 -11
35 -16 13 -20 39 -5 176 103 l143 112 -49 42 c-93 82 -224 134 -340 134 l-51
0 28 -182z"/>
<path d="M1028 1716 c-31 -13 -76 -37 -100 -54 -81 -55 -192 -193 -172 -212 5
-5 84 -38 176 -75 161 -64 167 -66 185 -48 10 10 29 25 41 33 l23 15 -26 173
c-14 96 -25 178 -25 183 0 16 -43 9 -102 -15z"/>
<path d="M2802 1628 c-11 -18 -34 -51 -50 -74 l-31 -41 29 -61 c16 -34 32 -62
36 -62 3 0 46 35 95 77 73 63 88 81 82 97 -4 12 -7 29 -7 38 0 11 -19 24 -57
37 -72 27 -73 27 -97 -11z"/>
<path d="M673 1568 c-42 -18 -43 -20 -43 -69 0 -28 -5 -60 -11 -71 -7 -12 -7
-24 -1 -30 5 -5 17 13 31 49 12 32 33 75 47 96 14 22 24 40 22 41 -2 2 -22 -5
-45 -16z"/>
<path d="M1510 1414 c-80 -63 -143 -120 -141 -127 3 -7 6 -30 9 -52 l4 -40
136 -54 c75 -30 152 -61 170 -68 31 -13 33 -12 43 14 19 52 22 183 5 256 -13
54 -69 189 -79 186 -1 0 -67 -52 -147 -115z"/>
<path d="M2910 1433 c-47 -41 -86 -79 -88 -83 -6 -16 103 -79 163 -95 73 -19
135 -20 135 -2 -1 6 -11 61 -23 120 l-22 109 -40 14 c-22 7 -40 13 -40 13 0 0
-38 -34 -85 -76z"/>
<path d="M2641 1441 l-23 -18 39 -10 40 -10 -11 28 c-12 34 -14 34 -45 10z"/>
<path d="M1965 1413 c-11 -3 -30 -9 -42 -14 l-23 -8 22 -46 c13 -26 27 -44 34
-41 49 19 97 17 180 -9 16 -5 26 2 48 35 l27 41 -48 21 c-47 21 -157 33 -198
21z"/>
<path d="M185 1369 c-38 -16 -71 -32 -73 -34 -9 -8 31 -65 73 -104 46 -42 135
-91 166 -91 18 0 22 17 34 121 7 54 6 57 -18 63 -14 3 -42 22 -63 41 -20 19
-40 35 -43 35 -3 -1 -37 -14 -76 -31z"/>
<path d="M539 1340 c-15 -11 -44 -23 -65 -28 -38 -8 -39 -9 -46 -62 -4 -30 -9
-70 -12 -87 -5 -32 -4 -33 33 -33 38 0 140 26 154 39 4 4 10 43 12 86 4 66 2
80 -13 91 -23 18 -32 17 -63 -6z"/>
<path d="M2203 1315 c-13 -19 -23 -37 -23 -40 0 -4 13 -23 29 -43 31 -40 51
-91 51 -128 0 -22 4 -24 51 -24 l51 0 -4 53 c-2 29 -14 74 -26 99 -21 43 -85
118 -100 118 -4 0 -17 -16 -29 -35z"/>
<path d="M2421 1308 c-47 -20 -46 -34 3 -40 25 -3 31 1 37 26 5 17 7 31 6 32
-1 1 -22 -7 -46 -18z"/>
<path d="M2800 1260 c0 -6 7 -13 15 -17 24 -9 27 1 5 15 -13 8 -20 8 -20 2z"/>
<path d="M2426 1193 c8 -25 14 -63 14 -83 0 -23 7 -43 18 -53 17 -15 19 -15
36 13 17 29 17 31 -9 64 -14 19 -29 50 -32 70 -4 26 -11 36 -23 36 -17 0 -17
-3 -4 -47z"/>
<path d="M2795 1189 c-3 -15 -22 -45 -41 -67 -31 -36 -33 -43 -23 -66 7 -14
18 -26 24 -26 18 0 85 76 101 116 21 51 18 61 -21 66 -31 3 -35 1 -40 -23z"/>
<path d="M1325 1106 l-40 -31 24 -175 c13 -96 25 -176 26 -178 1 -1 28 7 59
18 109 37 196 103 256 192 22 33 40 64 40 68 0 7 -108 53 -280 120 l-45 17
-40 -31z"/>
<path d="M1000 1008 c-69 -55 -134 -106 -145 -114 -19 -15 -19 -16 25 -55 84
-74 228 -129 338 -129 l53 0 -6 33 c-8 49 -45 307 -45 318 0 5 -6 9 -13 9 -7
0 -28 8 -47 18 l-35 19 -125 -99z"/>
<path d="M2511 1059 c-19 -25 -21 -33 -10 -40 43 -27 154 -38 203 -19 26 9 26
10 10 43 -15 32 -17 33 -77 32 -34 0 -71 3 -83 8 -16 5 -25 0 -43 -24z"/>
<path d="M2255 1023 c-8 -35 -40 -81 -78 -114 l-29 -25 21 -43 22 -42 28 20
c64 46 117 125 135 204 6 27 6 27 -43 27 -45 0 -49 -2 -56 -27z"/>
<path d="M1782 977 c-27 -63 -27 -66 1 -97 46 -53 52 -54 80 -11 l26 39 -21
18 c-11 11 -30 38 -42 61 l-21 42 -23 -52z"/>
<path d="M1887 856 c-15 -19 -27 -39 -27 -45 0 -18 109 -51 168 -51 64 0 132
16 132 31 0 5 -9 27 -20 48 l-19 39 -42 -10 c-39 -10 -70 -7 -145 17 -16 5
-27 -2 -47 -29z"/>
</g>
</svg>
